<svg id="visual" viewBox="0 0 900 600" width="900" height="600" xmlns="http://www.w3.org/2000/svg" xmlns:xlink="http://www.w3.org/1999/xlink" version="1.1"><g stroke-width="3" stroke-linejoin="bevel"><path d="M479 297L495 221L378 261Z" fill="#e10a10" stroke="#d6a99a"></path><path d="M495 221L404 190L378 261Z" fill="#910045" stroke="#d6a99a"></path><path d="M335 187L340 318L378 261Z" fill="#331832" stroke="#d6a99a"></path><path d="M378 261L437 371L479 297Z" fill="#910045" stroke="#d6a99a"></path><path d="M404 190L335 187L378 261Z" fill="#c60031" stroke="#d6a99a"></path><path d="M340 318L437 371L378 261Z" fill="#e10a10" stroke="#d6a99a"></path><path d="M514 58L388 109L404 190Z" fill="#561841" stroke="#d6a99a"></path><path d="M404 190L388 109L335 187Z" fill="#d50024" stroke="#d6a99a"></path><path d="M571 367L572 331L479 297Z" fill="#44193b" stroke="#d6a99a"></path><path d="M479 297L572 331L495 221Z" fill="#d50024" stroke="#d6a99a"></path><path d="M410 506L468 410L437 371Z" fill="#e10a10" stroke="#d6a99a"></path><path d="M437 371L468 410L479 297Z" fill="#b6003a" stroke="#d6a99a"></path><path d="M572 331L604 232L495 221Z" fill="#7d0c46" stroke="#d6a99a"></path><path d="M495 221L514 58L404 190Z" fill="#b6003a" stroke="#d6a99a"></path><path d="M198 325L328 372L340 318Z" fill="#c60031" stroke="#d6a99a"></path><path d="M340 318L328 372L437 371Z" fill="#44193b" stroke="#d6a99a"></path><path d="M468 410L571 367L479 297Z" fill="#331832" stroke="#d6a99a"></path><path d="M572 331L659 299L604 232Z" fill="#6a1445" stroke="#d6a99a"></path><path d="M388 109L334 88L335 187Z" fill="#331832" stroke="#d6a99a"></path><path d="M335 187L198 325L340 318Z" fill="#6a1445" stroke="#d6a99a"></path><path d="M604 232L592 122L495 221Z" fill="#44193b" stroke="#d6a99a"></path><path d="M388 109L421 0L334 88Z" fill="#b6003a" stroke="#d6a99a"></path><path d="M592 122L514 58L495 221Z" fill="#6a1445" stroke="#d6a99a"></path><path d="M571 367L659 299L572 331Z" fill="#6a1445" stroke="#d6a99a"></path><path d="M604 232L696 198L592 122Z" fill="#910045" stroke="#d6a99a"></path><path d="M334 88L235 140L335 187Z" fill="#c60031" stroke="#d6a99a"></path><path d="M514 58L421 0L388 109Z" fill="#561841" stroke="#d6a99a"></path><path d="M131 63L160 158L235 140Z" fill="#a40041" stroke="#d6a99a"></path><path d="M235 140L198 325L335 187Z" fill="#331832" stroke="#d6a99a"></path><path d="M583 0L505 0L514 58Z" fill="#c60031" stroke="#d6a99a"></path><path d="M514 58L505 0L421 0Z" fill="#e10a10" stroke="#d6a99a"></path><path d="M198 325L234 405L328 372Z" fill="#331832" stroke="#d6a99a"></path><path d="M328 372L410 506L437 371Z" fill="#d50024" stroke="#d6a99a"></path><path d="M316 478L410 506L328 372Z" fill="#e10a10" stroke="#d6a99a"></path><path d="M468 410L565 482L571 367Z" fill="#c60031" stroke="#d6a99a"></path><path d="M571 367L686 418L659 299Z" fill="#561841" stroke="#d6a99a"></path><path d="M234 405L316 478L328 372Z" fill="#d50024" stroke="#d6a99a"></path><path d="M659 299L696 198L604 232Z" fill="#910045" stroke="#d6a99a"></path><path d="M592 122L583 0L514 58Z" fill="#561841" stroke="#d6a99a"></path><path d="M528 515L565 482L468 410Z" fill="#561841" stroke="#d6a99a"></path><path d="M410 506L528 515L468 410Z" fill="#561841" stroke="#d6a99a"></path><path d="M739 0L583 0L592 122Z" fill="#d50024" stroke="#d6a99a"></path><path d="M279 0L235 140L334 88Z" fill="#910045" stroke="#d6a99a"></path><path d="M235 140L160 158L198 325Z" fill="#44193b" stroke="#d6a99a"></path><path d="M421 0L279 0L334 88Z" fill="#7d0c46" stroke="#d6a99a"></path><path d="M671 540L686 418L565 482Z" fill="#331832" stroke="#d6a99a"></path><path d="M565 482L686 418L571 367Z" fill="#44193b" stroke="#d6a99a"></path><path d="M801 312L793 174L696 198Z" fill="#b6003a" stroke="#d6a99a"></path><path d="M696 198L722 133L592 122Z" fill="#910045" stroke="#d6a99a"></path><path d="M793 174L722 133L696 198Z" fill="#561841" stroke="#d6a99a"></path><path d="M279 0L226 0L235 140Z" fill="#d50024" stroke="#d6a99a"></path><path d="M234 405L241 522L316 478Z" fill="#b6003a" stroke="#d6a99a"></path><path d="M327 600L419 600L410 506Z" fill="#44193b" stroke="#d6a99a"></path><path d="M410 506L478 600L528 515Z" fill="#6a1445" stroke="#d6a99a"></path><path d="M83 491L241 522L234 405Z" fill="#b6003a" stroke="#d6a99a"></path><path d="M64 428L234 405L198 325Z" fill="#b6003a" stroke="#d6a99a"></path><path d="M0 205L97 238L0 112Z" fill="#331832" stroke="#d6a99a"></path><path d="M160 158L97 238L198 325Z" fill="#910045" stroke="#d6a99a"></path><path d="M327 600L410 506L316 478Z" fill="#c60031" stroke="#d6a99a"></path><path d="M626 600L671 540L565 482Z" fill="#a40041" stroke="#d6a99a"></path><path d="M419 600L478 600L410 506Z" fill="#7d0c46" stroke="#d6a99a"></path><path d="M226 0L131 63L235 140Z" fill="#6a1445" stroke="#d6a99a"></path><path d="M801 312L696 198L659 299Z" fill="#c60031" stroke="#d6a99a"></path><path d="M722 133L739 0L592 122Z" fill="#a40041" stroke="#d6a99a"></path><path d="M686 418L801 312L659 299Z" fill="#6a1445" stroke="#d6a99a"></path><path d="M241 522L327 600L316 478Z" fill="#910045" stroke="#d6a99a"></path><path d="M626 600L565 482L528 515Z" fill="#7d0c46" stroke="#d6a99a"></path><path d="M686 418L833 408L801 312Z" fill="#b6003a" stroke="#d6a99a"></path><path d="M0 304L75 339L97 238Z" fill="#6a1445" stroke="#d6a99a"></path><path d="M97 238L75 339L198 325Z" fill="#561841" stroke="#d6a99a"></path><path d="M819 123L739 0L722 133Z" fill="#d50024" stroke="#d6a99a"></path><path d="M478 600L626 600L528 515Z" fill="#a40041" stroke="#d6a99a"></path><path d="M793 174L819 123L722 133Z" fill="#a40041" stroke="#d6a99a"></path><path d="M900 201L819 123L793 174Z" fill="#a40041" stroke="#d6a99a"></path><path d="M75 339L64 428L198 325Z" fill="#b6003a" stroke="#d6a99a"></path><path d="M241 522L171 600L327 600Z" fill="#b6003a" stroke="#d6a99a"></path><path d="M792 512L686 418L671 540Z" fill="#331832" stroke="#d6a99a"></path><path d="M792 512L833 408L686 418Z" fill="#e10a10" stroke="#d6a99a"></path><path d="M801 312L900 260L793 174Z" fill="#a40041" stroke="#d6a99a"></path><path d="M226 0L93 0L131 63Z" fill="#331832" stroke="#d6a99a"></path><path d="M0 112L97 238L160 158Z" fill="#7d0c46" stroke="#d6a99a"></path><path d="M75 339L0 361L64 428Z" fill="#44193b" stroke="#d6a99a"></path><path d="M64 428L83 491L234 405Z" fill="#331832" stroke="#d6a99a"></path><path d="M761 600L792 512L671 540Z" fill="#6a1445" stroke="#d6a99a"></path><path d="M0 112L160 158L131 63Z" fill="#6a1445" stroke="#d6a99a"></path><path d="M626 600L707 600L671 540Z" fill="#331832" stroke="#d6a99a"></path><path d="M83 491L171 600L241 522Z" fill="#44193b" stroke="#d6a99a"></path><path d="M64 428L0 503L83 491Z" fill="#7d0c46" stroke="#d6a99a"></path><path d="M0 205L0 304L97 238Z" fill="#c60031" stroke="#d6a99a"></path><path d="M0 304L0 361L75 339Z" fill="#c60031" stroke="#d6a99a"></path><path d="M900 85L826 0L819 123Z" fill="#e10a10" stroke="#d6a99a"></path><path d="M819 123L826 0L739 0Z" fill="#331832" stroke="#d6a99a"></path><path d="M93 0L0 112L131 63Z" fill="#561841" stroke="#d6a99a"></path><path d="M900 423L900 260L833 408Z" fill="#d50024" stroke="#d6a99a"></path><path d="M833 408L900 260L801 312Z" fill="#910045" stroke="#d6a99a"></path><path d="M900 260L900 201L793 174Z" fill="#561841" stroke="#d6a99a"></path><path d="M707 600L761 600L671 540Z" fill="#331832" stroke="#d6a99a"></path><path d="M900 496L900 423L833 408Z" fill="#44193b" stroke="#d6a99a"></path><path d="M900 201L900 85L819 123Z" fill="#6a1445" stroke="#d6a99a"></path><path d="M900 496L833 408L792 512Z" fill="#6a1445" stroke="#d6a99a"></path><path d="M93 0L0 0L0 112Z" fill="#44193b" stroke="#d6a99a"></path><path d="M0 361L0 503L64 428Z" fill="#6a1445" stroke="#d6a99a"></path><path d="M83 491L72 600L171 600Z" fill="#6a1445" stroke="#d6a99a"></path><path d="M0 503L72 600L83 491Z" fill="#331832" stroke="#d6a99a"></path><path d="M900 600L900 496L792 512Z" fill="#331832" stroke="#d6a99a"></path><path d="M900 85L900 0L826 0Z" fill="#c60031" stroke="#d6a99a"></path><path d="M0 503L0 600L72 600Z" fill="#7d0c46" stroke="#d6a99a"></path><path d="M761 600L900 600L792 512Z" fill="#6a1445" stroke="#d6a99a"></path></g></svg>